<svg width="17" height="16" viewBox="0 0 17 16" fill="none" xmlns="http://www.w3.org/2000/svg">
    <path d="M8.21822 8.86846C8.20552 9.03866 8.19959 9.24527 8.19959 9.48999L9.52225 9.49253C9.52225 9.35027 9.52564 9.22918 9.53241 9.12842C9.53843 9.03389 9.55548 8.94039 9.58322 8.84983C9.61206 8.76014 9.65587 8.67596 9.71278 8.60088C9.79051 8.50086 9.87541 8.40662 9.96681 8.3189C10.1404 8.16733 10.3148 8.01067 10.4842 7.84979C10.6513 7.69377 10.8049 7.5238 10.9431 7.34172C11.0774 7.16391 11.1881 6.96952 11.2725 6.76338C11.3594 6.54468 11.4025 6.31109 11.3996 6.0758C11.4056 5.7684 11.348 5.46307 11.2302 5.17906C11.1209 4.9261 10.9525 4.70308 10.7391 4.52874C10.5064 4.3439 10.238 4.20926 9.95072 4.13329C9.6066 4.04028 9.25123 3.99554 8.89479 4.00035C8.56455 3.99749 8.23556 4.0414 7.91761 4.13075C7.63243 4.20947 7.36565 4.34387 7.13265 4.5262C6.90761 4.70504 6.72608 4.93261 6.60173 5.19176C6.46457 5.48678 6.39568 5.80892 6.40019 6.13422H7.87782C7.87642 5.98796 7.90797 5.84325 7.97011 5.71083C8.02419 5.59944 8.10227 5.5014 8.19874 5.42378C8.29371 5.34876 8.40288 5.29375 8.51967 5.26204C8.64065 5.22806 8.76574 5.21096 8.8914 5.21124C9.16409 5.19136 9.43476 5.27076 9.6535 5.43479C9.7463 5.52582 9.81774 5.6363 9.8627 5.75827C9.90765 5.88025 9.92499 6.01067 9.91346 6.14015C9.91253 6.27963 9.88194 6.41732 9.8237 6.54406C9.76006 6.68433 9.68081 6.81698 9.58745 6.93951C9.48682 7.07209 9.37764 7.19796 9.2606 7.31632C9.14036 7.43882 9.02011 7.55455 8.89987 7.6635C8.7565 7.77175 8.62558 7.89557 8.50951 8.03269C8.41912 8.14524 8.34919 8.27278 8.3029 8.40951C8.25539 8.5583 8.22694 8.71251 8.21822 8.86846Z" fill="black"/>
    <path d="M8.0404 10.772C8.00087 10.8763 7.98106 10.9869 7.98197 11.0984C7.98109 11.2074 8.00092 11.3156 8.0404 11.4172C8.0775 11.5133 8.13533 11.6001 8.20975 11.6713C8.28791 11.7452 8.38003 11.8028 8.48072 11.8406C8.71346 11.922 8.96689 11.922 9.19963 11.8406C9.30127 11.8032 9.3943 11.7456 9.47314 11.6713C9.54685 11.5995 9.60456 11.5129 9.64249 11.4172C9.68355 11.3162 9.70427 11.208 9.70346 11.0989C9.70444 10.987 9.68373 10.876 9.64249 10.772C9.60437 10.674 9.54675 10.5847 9.47314 10.5095C9.39521 10.434 9.30192 10.3763 9.19963 10.3402C8.96689 10.2588 8.71346 10.2588 8.48072 10.3402C8.37944 10.3768 8.28709 10.4345 8.20975 10.5095C8.13541 10.5841 8.07769 10.6735 8.0404 10.772Z" fill="black"/>
    <path fill-rule="evenodd" clip-rule="evenodd" d="M8.79999 1C4.93399 1 1.79999 4.13401 1.79999 8C1.79999 11.866 4.93399 15 8.79999 15C12.666 15 15.8 11.866 15.8 8C15.8 4.13401 12.666 1 8.79999 1ZM2.79999 8C2.79999 4.68629 5.48628 2 8.79999 2C12.1137 2 14.8 4.68629 14.8 8C14.8 11.3137 12.1137 14 8.79999 14C5.48628 14 2.79999 11.3137 2.79999 8Z" fill="black"/>
</svg>
