<svg xmlns="http://www.w3.org/2000/svg" xmlns:xlink="http://www.w3.org/1999/xlink" version="1.1" width="256" height="256" viewBox="0 0 256 256" xml:space="preserve">

<defs>
</defs>
<g style="stroke: none; stroke-width: 0; stroke-dasharray: none; stroke-linecap: butt; stroke-linejoin: miter; stroke-miterlimit: 10; fill: none; fill-rule: nonzero; opacity: 1;" transform="translate(1.4065934065934016 1.4065934065934016) scale(2.81 2.81)" >
	<path d="M 6.276 86.311 c 0.319 -0.344 0.712 -0.853 1.197 -1.252 c 0.394 -0.365 0.694 -0.686 1.043 -1.027 c 0.326 -0.347 0.62 -0.723 0.937 -1.071 c 0.296 -0.367 0.566 -0.753 0.849 -1.125 c 1.06 -1.544 1.819 -3.247 2.309 -5.011 c 0.946 -3.551 0.839 -7.317 0.213 -11.01 c -0.599 -3.706 -1.655 -7.378 -2.871 -11.02 c -1.187 -3.655 -2.545 -7.287 -3.915 -10.952 c -1.319 -3.684 -2.665 -7.393 -3.82 -11.237 c -1.143 -3.842 -2.097 -7.845 -2.213 -12.139 c -0.033 -2.142 0.181 -4.375 0.845 -6.574 C 1.49 11.69 2.791 9.602 4.428 7.966 c 1.654 -1.642 3.657 -2.749 5.656 -3.523 c 2.011 -0.774 4.056 -1.228 6.084 -1.53 l 0.142 -0.021 c 0.029 -0.004 0.062 -0.006 0.091 -0.006 c 3.986 0.026 8.045 0.588 11.776 2.171 c 3.782 1.46 6.982 4.316 9.061 7.723 c 2.101 3.425 3.13 7.333 3.586 11.21 c 0.519 3.903 0.497 3.916 0.249 7.797 l 0 0 c 4.11 -5.582 6.702 -7.892 13.319 -11.263 c 3.32 -1.617 7.143 -2.52 10.991 -2.304 c 3.856 0.173 7.591 1.515 10.81 3.46 c 1.639 0.951 3.103 2.121 4.513 3.332 c 0.672 0.638 1.355 1.261 2.016 1.918 l 1.889 2.11 c 2.349 3.101 4.068 6.585 4.881 10.439 c 0.82 3.832 0.625 7.889 -0.422 11.613 c -1.049 3.735 -2.88 7.133 -5.1 10.115 c -4.463 5.989 -10.316 10.483 -16.487 14.03 c -6.229 3.487 -12.818 6.155 -19.599 7.973 c -6.762 1.876 -13.678 3.03 -20.604 3.568 l -5.196 0.294 l -5.195 0.046 l -5.193 -0.178 c -0.966 -0.057 -1.954 -0.165 -2.867 -0.303 C 7.912 86.5 7.081 86.375 6.276 86.311 z" style="stroke: none; stroke-width: 1; stroke-dasharray: none; stroke-linecap: butt; stroke-linejoin: miter; stroke-miterlimit: 10; fill: rgb(255,72,208); fill-rule: nonzero; opacity: 1;" transform=" matrix(1 0 0 1 0 0) " stroke-linecap="round" />
</g>
</svg>