<svg width="17" height="16" viewBox="0 0 17 16" fill="none" xmlns="http://www.w3.org/2000/svg">
    <path fill-rule="evenodd" clip-rule="evenodd" d="M8.79999 1.00002C6.86699 1.00002 5.29999 2.56702 5.29999 4.50002V5.00003C4.19536 5.00006 3.29999 5.89584 3.29999 7.00029V15H14.3V7.0003C14.3 5.89584 13.4046 5.00007 12.3 5.00003V4.50002C12.3 2.56702 10.733 1.00002 8.79999 1.00002ZM6.29999 4.50002C6.29999 3.1193 7.41928 2.00002 8.79999 2.00002C10.1807 2.00002 11.3 3.1193 11.3 4.50002V5.00002H6.29999V4.50002ZM5.30005 6.00003L12.2999 6.00003C12.8521 6.00003 13.3 6.44793 13.3 7.0003V14H4.29999L4.29999 7.00029C4.29999 6.44792 4.74786 6.00003 5.30005 6.00003Z" fill="black"/>
</svg>
