<svg xmlns="http://www.w3.org/2000/svg" viewBox="0 0 32 32"><title>icon-delivery-courier-cod</title><path d="M13.5,16.92a2,2,0,0,1-1.05.22,4.08,4.08,0,0,1-1.28-.21,3.58,3.58,0,0,1-1.1-.57l-.57,1.3a3.73,3.73,0,0,0,1.28.63,6.67,6.67,0,0,0,1.1.2V20h1.25V18.47a3.68,3.68,0,0,0,1-.25,2.36,2.36,0,0,0,1-.84,2.09,2.09,0,0,0,.35-1.17A1.76,1.76,0,0,0,15.12,15a2.29,2.29,0,0,0-.9-.64,11.52,11.52,0,0,0-1.35-.4,6.17,6.17,0,0,1-1.18-.37.6.6,0,0,1-.39-.57.74.74,0,0,1,.34-.62,1.88,1.88,0,0,1,1-.23,4,4,0,0,1,2,.58l.51-1.31A4.15,4.15,0,0,0,14,11a5.73,5.73,0,0,0-.91-.14V9.31H11.88v1.57a3.56,3.56,0,0,0-.87.24A2.36,2.36,0,0,0,10,12a2.17,2.17,0,0,0-.34,1.18A1.81,1.81,0,0,0,10,14.33a2.22,2.22,0,0,0,.9.65,11.52,11.52,0,0,0,1.35.4c.36.09.64.17.85.24a1.43,1.43,0,0,1,.52.28.59.59,0,0,1,.2.44A.65.65,0,0,1,13.5,16.92Z"/><polygon points="15.11 5.13 13.61 5.13 13.61 3.13 11.61 3.13 11.61 5.13 10.11 5.13 12.61 7.63 15.11 5.13"/><path d="M28.12,13.5l-2.25-3H22.63v-4H16.5V7.75h4.88V10.5h0v11a3.87,3.87,0,0,0-2.17,2.8v-.07h-7a3.87,3.87,0,0,1,.08.77,3.86,3.86,0,1,0-7.71,0,3.87,3.87,0,0,1,.08-.77H2.88V7.75H8.5V6.5H1.63v19H4.57a3.83,3.83,0,0,0,7.61,0h7a3.84,3.84,0,0,0,7.62,0h3.58V16.29ZM8.38,27.62A2.61,2.61,0,1,1,11,25,2.61,2.61,0,0,1,8.38,27.62ZM22,21.31h0Zm1,6.31A2.61,2.61,0,1,1,25.59,25,2.61,2.61,0,0,1,23,27.62Zm6.14-3.37H26.76a3.87,3.87,0,0,1,.08.77A3.86,3.86,0,0,0,23,21.16c-.12,0-.23,0-.35,0V11.75h2.62l1.9,2.53,2,2.45Z"/></svg>