<svg xmlns="http://www.w3.org/2000/svg" id="img_empty_result" width="60" height="60" viewBox="0 0 60 60">
    <defs>
        <clipPath id="clip-path">
            <circle id="Ellipse_11" cx="30" cy="30" r="30" fill="none"/>
        </clipPath>
        <style>
            .cls-3{fill:#e4e0dd}.cls-4{fill:#fff}.cls-5{fill:#161615}
        </style>
    </defs>
    <g id="Group_17" clip-path="url(#clip-path)">
        <path id="Path_55" d="M60 30A30 30 0 1 1 30 0a30 30 0 0 1 30 30" class="cls-3" transform="translate(0 .056)"/>
        <path id="Path_56" d="M69.976 32.261h-1.5v-3.394h.75a4.541 4.541 0 1 0-4.668-4.539h-1.5a6.169 6.169 0 1 1 6.918 5.994z" class="cls-4" transform="translate(-15.764 -4.516)"/>
        <path id="Path_57" d="M64.923 36.764L47.2 48.194a.513.513 0 0 0 .278.944h35.451a.513.513 0 0 0 .277-.944l-17.727-11.43a.511.511 0 0 0-.556 0" class="cls-4" transform="translate(-11.74 -9.114)"/>
        <path id="Path_58" d="M82.679 49.637H47.224a1.263 1.263 0 0 1-.683-2.324l17.726-11.43a1.266 1.266 0 0 1 1.369 0l17.727 11.43a1.263 1.263 0 0 1-.684 2.324m-34.649-1.5h33.843l-16.921-10.91z" class="cls-4" transform="translate(-11.49 -8.864)"/>
        <path id="Path_59" d="M55.41 36.764l-17.728 11.43a.513.513 0 0 0 .278.944h35.456a.513.513 0 0 0 .278-.944l-17.728-11.43a.511.511 0 0 0-.556 0" class="cls-3" transform="translate(-9.362 -9.114)"/>
        <path id="Path_60" d="M55.463 32.261h-1.5v-3.394h.75a4.541 4.541 0 1 0-4.667-4.539h-1.5a6.169 6.169 0 1 1 6.917 5.994z" class="cls-4" transform="translate(-12.137 -4.516)"/>
        <path id="Path_61" d="M50.41 36.764l-17.728 11.43a.513.513 0 0 0 .278.944h35.456a.513.513 0 0 0 .278-.944l-17.728-11.43a.511.511 0 0 0-.556 0" class="cls-4" transform="translate(-8.112 -9.114)"/>
        <path id="Path_62" d="M68.166 49.637H32.711a1.263 1.263 0 0 1-.683-2.324l17.726-11.43a1.266 1.266 0 0 1 1.369 0l17.727 11.43a1.263 1.263 0 0 1-.684 2.324m-34.649-1.5H67.36l-16.921-10.91z" class="cls-4" transform="translate(-7.862 -8.864)"/>
        <path id="Path_63" d="M64.04 24.368a5.967 5.967 0 0 1 5.96 5.96v49.679a5.967 5.967 0 0 1-5.96 5.96H17.461a5.967 5.967 0 0 1-5.961-5.96V30.328a5.967 5.967 0 0 1 5.961-5.96H64.04m0-1.5H17.461A7.46 7.46 0 0 0 10 30.328v49.679a7.46 7.46 0 0 0 7.461 7.46H64.04a7.46 7.46 0 0 0 7.46-7.46V30.328a7.46 7.46 0 0 0-7.46-7.46" class="cls-5" transform="translate(-2.5 -5.661)"/>
        <path id="Path_64" d="M40.95 32.261h-1.5v-3.394h.75a4.541 4.541 0 1 0-4.668-4.539h-1.5a6.169 6.169 0 1 1 6.918 5.994z" class="cls-5" transform="translate(-8.508 -4.516)"/>
        <path id="Path_65" d="M53.652 49.637H18.2a1.263 1.263 0 0 1-.685-2.324l17.728-11.43a1.267 1.267 0 0 1 1.369 0l17.727 11.43a1.263 1.263 0 0 1-.684 2.324M19 48.137h33.846l-16.921-10.91z" class="cls-5" transform="translate(-4.233 -8.864)"/>
    </g>
</svg>
