<svg width="15" height="14" viewBox="0 0 15 14" fill="none" xmlns="http://www.w3.org/2000/svg">
<path d="M2.95013 8.86471C3.41624 10.1258 4.33777 11.1667 5.53314 11.7821C6.72851 12.3976 8.11104 12.5431 9.40833 12.1899C10.7056 11.8367 11.8236 11.0104 12.542 9.87394C13.2604 8.73744 13.5271 7.3731 13.2895 6.04974C13.052 4.72638 12.3275 3.53996 11.2587 2.72424C10.1899 1.90852 8.85434 1.52266 7.5152 1.64269C6.17605 1.76271 4.93042 2.37991 4.02371 3.37268C3.47989 3.96812 3.08165 4.67277 2.85033 5.43151H3.99545V7.00151H2.61656L2.61656 7.00631L0.995367 7.00821L0.995362 7.00151H0L1.74912e-07 3H1.57V4.22246C1.87561 3.51546 2.29834 2.85783 2.82664 2.27938C4.00663 0.987385 5.62771 0.184157 7.37048 0.0279609C9.11325 -0.128236 10.8513 0.373925 12.2423 1.4355C13.6332 2.49708 14.5761 4.0411 14.8852 5.76333C15.1944 7.48556 14.8473 9.26112 13.9124 10.7402C12.9775 12.2192 11.5225 13.2945 9.83421 13.7541C8.14591 14.2138 6.34668 14.0245 4.79102 13.2235C3.70863 12.6662 2.79877 11.8409 2.14102 10.8376C1.85342 10.3988 1.61402 9.92606 1.42947 9.42675L2.95013 8.86471Z" fill="#333333"/>
<path fill-rule="evenodd" clip-rule="evenodd" d="M10.9954 10H4.99536V4L10.9954 4V10ZM9.42536 6.21497L6.56536 6.21497V5.57L9.42536 5.57V6.21497ZM6.56536 7.78497V8.43H9.42536V7.78497L6.56536 7.78497Z" fill="#333333"/>
</svg>
