<svg xmlns="http://www.w3.org/2000/svg" viewBox="0 0 48 48">
    <g id="icon_filter_results_empty" data-name="icon filter results empty" transform="translate(-3.5 -6.5)">
        <circle id="blue_circle" cx="24" cy="24" r="24" fill="#0e9fea" data-name="blue circle" opacity="0.302" transform="translate(3.5 6.5)" style="isolation:isolate"/>
        <path id="Path_9" fill="#777" d="M30.8 29.654a9.058 9.058 0 0 0 3.414-3.677 3.963 3.963 0 0 0-.045-2.609 6.345 6.345 0 0 0-12.045 0c-.9 2.609.913 2.618 1.033 2.609a1.286 1.286 0 0 0 1.281-1.056 3.742 3.742 0 0 1 7.418-.092c-.094 1.026-2.426 2.611-3.316 3.215-.3.2-.557.384-.781.555-3.083 1.647-15.992 8.881-9.608 11.353.88 0 2.309-.039 5.177-.039 1.345 0 3.007.008 5.077.034 2.332.029 4.073.039 5.427.039 2.535 0 3.706-.034 4.83-.034 4.373-2.223-3.621-7.71-7.862-10.298zm3.032 7.723c-1.56 0-3.325-.013-5.4-.038-1.849-.023-3.568-.035-5.109-.035-1.654 0-2.823.013-3.7.024a23.545 23.545 0 0 1 4.639-3.654c1.554-1.008 3.082-1.878 4.1-2.437.986.578 2.456 1.472 3.947 2.5a23.416 23.416 0 0 1 4.345 3.622c-.727.01-1.619.018-2.823.018z" data-name="Path 9"/>
    </g>
</svg>
