<svg width="24" height="24" viewBox="0 0 24 24" fill="none" xmlns="http://www.w3.org/2000/svg">
<path fill-rule="evenodd" clip-rule="evenodd" d="M8 7.5C8 5.29086 9.79086 3.5 12 3.5C14.2091 3.5 16 5.29086 16 7.5C16 9.70914 14.2091 11.5 12 11.5C9.79086 11.5 8 9.70914 8 7.5ZM12 2C8.96243 2 6.5 4.46243 6.5 7.5C6.5 10.5376 8.96243 13 12 13C15.0376 13 17.5 10.5376 17.5 7.5C17.5 4.46243 15.0376 2 12 2ZM5.98011 17.8299C6.9464 16.9875 8.27649 16.5 9.68137 16.5H14.3186C15.0123 16.5 15.6973 16.6192 16.3337 16.849C16.9702 17.0789 17.5424 17.4136 18.0199 17.8299C18.4972 18.246 18.8694 18.7344 19.1211 19.264C19.3099 19.6615 19.4289 20.0779 19.4764 20.5H4.52367C4.63495 19.5123 5.13639 18.5654 5.98011 17.8299ZM9.68137 15C7.94006 15 6.25282 15.6021 4.99441 16.6992C3.73273 17.7991 3 19.3148 3 20.9209V21.25V22H3.75H20.25H21V21.25V20.9209C21 20.1279 20.8207 19.3458 20.4759 18.6202C20.1314 17.8951 19.6298 17.2434 19.0056 16.6992C18.3815 16.1552 17.646 15.7281 16.8432 15.4382C16.0404 15.1483 15.1828 15 14.3186 15H9.68137Z" fill="black"/>
</svg>
