<svg width="16" height="14" viewBox="0 0 16 14" fill="none" xmlns="http://www.w3.org/2000/svg">
<path fill-rule="evenodd" clip-rule="evenodd" d="M3.71495 6.715H12.285V12.43L13.4401 12.43C13.4611 10.1404 13.5094 6.41343 13.531 4.785H2.46928C2.49086 6.41342 2.53917 10.1403 2.56006 12.4299L3.71495 12.43V6.715ZM5.28495 12.43L7.21491 12.43V8.285H5.28495V12.43ZM8.78491 8.285V12.43L10.715 12.43V8.285H8.78491ZM3.07826 3.215H12.9219L12.0534 1.57H3.94654L3.07826 3.215ZM14.0002 14C14.5524 14 15.001 13.554 15.0053 13.0018C15.0235 10.6829 15.0843 6.04377 15.1048 4.50729C15.1093 4.17268 15.0298 3.84493 14.8735 3.549L13.2814 0.533142C13.1083 0.205207 12.7679 0 12.3971 0H3.60288C3.23202 0 2.89162 0.205234 2.71851 0.533203L1.12665 3.54906C0.970463 3.84495 0.890977 4.17265 0.895442 4.5072C0.915946 6.0436 0.97675 10.6829 0.994882 13.0017C0.9992 13.554 1.44776 13.9999 2.00005 13.9999L14.0002 14Z" fill="#333333"/>
</svg>
