<svg width="12" height="15" viewBox="0 0 12 15" fill="none" xmlns="http://www.w3.org/2000/svg">
<path fill-rule="evenodd" clip-rule="evenodd" d="M3.90906 1.875V1.25C3.90906 0.559644 4.4687 0 5.15906 0H6.79076C7.48112 0 8.04076 0.559644 8.04076 1.25V1.875H12V3.125H0V1.875H3.90906ZM5.15906 1.25H6.79076V1.875H5.15906V1.25Z" fill="#333333"/>
<path fill-rule="evenodd" clip-rule="evenodd" d="M0.993774 4.00604H11.0064L10.6512 12.9611C10.6272 13.5646 10.131 14.0415 9.52705 14.0415H2.4731C1.86912 14.0415 1.37292 13.5646 1.34898 12.9611L0.993774 4.00604ZM2.29434 5.25604L2.59324 12.7915H3.90906L3.90906 6.9696H5.15906L5.15906 12.7915H6.875L6.875 6.9696H8.125V12.7915H9.40691L9.70581 5.25604H2.29434Z" fill="#333333"/>
</svg>

