<svg xmlns="http://www.w3.org/2000/svg" width="24" height="24">
    <path fill="#777" fill-rule="evenodd" d="M13.497 21.005c-2.63 0-5.028-.974-6.87-2.571L1.061 24 0 22.939l5.566-5.566a10.451 10.451 0 0 1-2.571-6.87C2.995 4.702 7.697 0 13.497 0 19.298 0 24 4.702 24 10.503c0 5.8-4.702 10.502-10.503 10.502zm0-19.504c-4.963 0-9.002 4.038-9.002 9.002 0 4.963 4.039 9.002 9.002 9.002 4.964 0 9.002-4.039 9.002-9.002 0-4.964-4.038-9.002-9.002-9.002zm-5.031 9.032l1.061-1.061 2.47 2.47 5.471-5.471 1.061 1.061-6.532 6.532-3.531-3.531z"/>
</svg>
